<?xml version="1.0" encoding="UTF-8"?>
<svg version="1.1" xmlns="http://www.w3.org/2000/svg" width="50" height="56">
<path d="M0 0 C5.78594395 4.71565029 7.79646345 8.61228129 9.6953125 15.80078125 C9.97024379 23.91125443 6.94187915 30.36738452 1.8203125 36.48828125 C-0.4921875 38.42578125 -0.4921875 38.42578125 -2.1796875 39.48828125 C-1.1896875 40.14828125 -0.1996875 40.80828125 0.8203125 41.48828125 C-1.16439318 43.47298693 -4.89592524 42.94983379 -7.6171875 43.11328125 C-8.33986816 43.15686768 -9.06254883 43.2004541 -9.80712891 43.24536133 C-15.25294765 43.52901037 -20.84473626 43.80484647 -26.1796875 42.48828125 C-26.8396875 41.82828125 -27.4996875 41.16828125 -28.1796875 40.48828125 C-27.5196875 39.82828125 -26.8596875 39.16828125 -26.1796875 38.48828125 C-26.9015625 38.01390625 -27.6234375 37.53953125 -28.3671875 37.05078125 C-33.12281087 32.71787996 -35.74755522 28.5132072 -36.66796875 22.0703125 C-36.9496262 14.56212953 -36.36123832 9.10054033 -31.1796875 3.48828125 C-22.48809573 -5.71943829 -10.5045372 -7.28540483 0 0 Z " fill="#8D0104" transform="translate(37.1796875,8.51171875)"/>
<path d="M0 0 C0.90105469 0.00902344 1.80210938 0.01804687 2.73046875 0.02734375 C3.41753906 0.03894531 4.10460937 0.05054688 4.8125 0.0625 C5.1425 1.0525 5.4725 2.0425 5.8125 3.0625 C5.09126953 4.39667969 5.09126953 4.39667969 4.35546875 5.7578125 C2.51328096 9.70335901 2.66492837 12.73578386 3.125 16.9375 C3.18623047 17.62585938 3.24746094 18.31421875 3.31054688 19.0234375 C3.46231858 20.70460098 3.63523618 22.38383301 3.8125 24.0625 C3.06484375 24.03929688 2.3171875 24.01609375 1.546875 23.9921875 C0.56203125 23.97414063 -0.4228125 23.95609375 -1.4375 23.9375 C-2.41203125 23.91429688 -3.3865625 23.89109375 -4.390625 23.8671875 C-7.27835758 24.0688448 -8.8698705 24.33364473 -11.1875 26.0625 C-12.64002003 30.54330421 -12.49376557 35.56314083 -11.1875 40.0625 C-15.4953621 38.25835263 -17.0784688 35.96386742 -19.1953125 31.89453125 C-21.35031928 25.74342921 -21.51798332 18.76089195 -19.30078125 12.59765625 C-14.95732237 5.07957626 -8.81522379 -0.11448343 0 0 Z " fill="#045DA8" transform="translate(21.1875,4.9375)"/>
<path d="M0 0 C7.73646011 -0.48352876 13.26794592 1.32357772 19.3125 6.25 C24.72241937 11.29925808 26.45136223 16.59339006 27 24 C26.5625 26.9375 26.5625 26.9375 26 29 C25.67 29 25.34 29 25 29 C24.67 25.37 24.34 21.74 24 18 C23.71125 19.134375 23.4225 20.26875 23.125 21.4375 C22.75375 22.613125 22.3825 23.78875 22 25 C18.2781653 26.86091735 14.05280619 26.5680311 10 26 C6.27421788 23.28328387 4.02571388 20.51314107 3 16 C3.0908079 11.0237272 3.81591937 6.51376663 6 2 C3.03 1.505 3.03 1.505 0 1 C0 0.67 0 0.34 0 0 Z " fill="#F36502" transform="translate(20,4)"/>
<path d="M0 0 C0.66 0.33 1.32 0.66 2 1 C2 1.66 2 2.32 2 3 C5.4766338 5.14336161 8.21229195 5.21277626 12.25 5.125 C13.86648437 5.09792969 13.86648437 5.09792969 15.515625 5.0703125 C16.33546875 5.04710937 17.1553125 5.02390625 18 5 C17.67 5.7425 17.34 6.485 17 7.25 C15.77217129 10.13883312 15.77217129 10.13883312 16 14 C10.3248549 15.93000886 5.28428375 16.30568097 -0.6875 16.25 C-1.94916992 16.26160156 -1.94916992 16.26160156 -3.23632812 16.2734375 C-4.04908203 16.27085938 -4.86183594 16.26828125 -5.69921875 16.265625 C-6.79496216 16.26224121 -6.79496216 16.26224121 -7.9128418 16.25878906 C-10.29035545 15.96399851 -11.92902294 15.17640609 -14 14 C-14.25 10.6875 -14.25 10.6875 -14 7 C-12.34375 5.25 -12.34375 5.25 -10 4 C-7.203125 3.92578125 -7.203125 3.92578125 -4.25 4.3125 C-3.26515625 4.43238281 -2.2803125 4.55226563 -1.265625 4.67578125 C-0.14414062 4.83626953 -0.14414062 4.83626953 1 5 C0.67 3.35 0.34 1.7 0 0 Z " fill="#B90203" transform="translate(24,24)"/>
<path d="M0 0 C0.90105469 0.00902344 1.80210938 0.01804687 2.73046875 0.02734375 C3.41753906 0.03894531 4.10460937 0.05054688 4.8125 0.0625 C5.8125 3.0625 5.8125 3.0625 4.5625 6.1875 C2.8125 9.0625 2.8125 9.0625 -0.1875 10.0625 C-2.08702346 9.97728259 -3.98413573 9.82520916 -5.875 9.625 C-7.36580078 9.47224609 -7.36580078 9.47224609 -8.88671875 9.31640625 C-9.64597656 9.23261719 -10.40523437 9.14882812 -11.1875 9.0625 C-11.1875 8.4025 -11.1875 7.7425 -11.1875 7.0625 C-14.44939519 8.97464545 -16.25024089 11.15870967 -17.66015625 14.6796875 C-18.84377877 20.02790776 -18.39131983 25.61975563 -18.1875 31.0625 C-20.99402431 28.25597569 -20.55366611 26.35666805 -20.625 22.4375 C-20.49816414 14.68465797 -18.80874472 10.66789682 -13.40234375 5.28515625 C-9.02456069 1.33492738 -5.99361966 -0.07783922 0 0 Z " fill="#76A7CF" transform="translate(21.1875,4.9375)"/>
<path d="M0 0 C7.73646011 -0.48352876 13.26794592 1.32357772 19.3125 6.25 C24.72241937 11.29925808 26.45136223 16.59339006 27 24 C26.5625 26.9375 26.5625 26.9375 26 29 C25.67 29 25.34 29 25 29 C24.505 22.565 24.505 22.565 24 16 C23.34 16 22.68 16 22 16 C20.375 13.5 20.375 13.5 19 11 C18.01 11.495 18.01 11.495 17 12 C14.78861145 11.91188555 12.57957815 11.7570216 10.375 11.5625 C9.18648437 11.46066406 7.99796875 11.35882813 6.7734375 11.25390625 C5.85820312 11.17011719 4.94296875 11.08632812 4 11 C4.59651306 7.97733297 5.22669667 4.98274142 6 2 C3.03 1.505 3.03 1.505 0 1 C0 0.67 0 0.34 0 0 Z " fill="#F7AB66" transform="translate(20,4)"/>
<path d="M0 0 C7.59 0 15.18 0 23 0 C21 6 21 6 19.328125 7.3671875 C16.08423795 8.24891519 13.10543272 8.18713764 9.75 8.125 C8.48671875 8.10695313 7.2234375 8.08890625 5.921875 8.0703125 C4.95765625 8.04710937 3.9934375 8.02390625 3 8 C1.5268006 5.25002779 0.77595125 3.10380501 0 0 Z " fill="#6B0406" transform="translate(12,42)"/>
<path d="M0 0 C0.66 0.33 1.32 0.66 2 1 C2 1.66 2 2.32 2 3 C5.4766338 5.14336161 8.21229195 5.21277626 12.25 5.125 C13.86648437 5.09792969 13.86648437 5.09792969 15.515625 5.0703125 C16.33546875 5.04710937 17.1553125 5.02390625 18 5 C17.34 6.98 16.68 8.96 16 11 C9.05955853 11.33886423 4.40435255 10.90008417 -2 8 C-6.06231355 7.53837346 -10.09727265 7.69909088 -14 9 C-14 7 -14 7 -12.359375 5.35546875 C-9.3376305 3.61946653 -7.67088565 3.86452688 -4.25 4.3125 C-3.26515625 4.43238281 -2.2803125 4.55226563 -1.265625 4.67578125 C-0.14414062 4.83626953 -0.14414062 4.83626953 1 5 C0.67 3.35 0.34 1.7 0 0 Z " fill="#A62E0E" transform="translate(24,24)"/>
<path d="M0 0 C2.7923426 2.7923426 2.39896441 4.66000024 2.5 8.5625 C2.43527381 14.84741312 1.26100996 18.5373056 -2.4921875 23.5234375 C-4 25 -4 25 -6 25 C-5.32829194 21.1936543 -4.27253436 17.64793184 -3 14 C-3.66 13.67 -4.32 13.34 -5 13 C-4.29423828 12.41798828 -4.29423828 12.41798828 -3.57421875 11.82421875 C-1.59007113 9.52497076 -1.31466837 7.78688189 -0.8125 4.8125 C-0.65394531 3.91144531 -0.49539062 3.01039062 -0.33203125 2.08203125 C-0.22246094 1.39496094 -0.11289062 0.70789063 0 0 Z " fill="#C66758" transform="translate(43,20)"/>
<path d="M0 0 C0.33 0 0.66 0 1 0 C1.66 4.95 2.32 9.9 3 15 C0.265625 14.93489583 -2.46875 14.86979167 -5.203125 14.8046875 C-8.10583002 15.00739036 -9.67105647 15.26387846 -12 17 C-12.91160093 19.17208588 -12.91160093 19.17208588 -13.25 21.625 C-13.39953125 22.44226563 -13.5490625 23.25953125 -13.703125 24.1015625 C-13.80109375 24.72804688 -13.8990625 25.35453125 -14 26 C-14.33 26 -14.66 26 -15 26 C-15.76182137 18.07705779 -15.76182137 18.07705779 -13.1875 14.4375 C-8.49265456 12.32021676 -4.07054109 12.68031615 1 13 C0.67386719 12.42636719 0.34773438 11.85273438 0.01171875 11.26171875 C-1.56623952 7.73415953 -1.1887738 4.83840058 -1 1 C-0.67 0.67 -0.34 0.34 0 0 Z " fill="#202C4F" transform="translate(22,14)"/>
<path d="M0 0 C0.90105469 0.00902344 1.80210938 0.01804687 2.73046875 0.02734375 C3.41753906 0.03894531 4.10460938 0.05054688 4.8125 0.0625 C5.1425 1.0525 5.4725 2.0425 5.8125 3.0625 C3.8125 6.0625 3.8125 6.0625 0.8125 7.0625 C-0.91545352 7.13052967 -2.64585365 7.14745645 -4.375 7.125 C-5.72658203 7.11146484 -5.72658203 7.11146484 -7.10546875 7.09765625 C-7.79253906 7.08605469 -8.47960938 7.07445312 -9.1875 7.0625 C-6.78313974 3.45595961 -5.24070393 3.20797068 -1.1875 2.0625 C-3.8275 2.3925 -6.4675 2.7225 -9.1875 3.0625 C-7.31499103 -0.68251794 -3.72136574 -0.04832943 0 0 Z " fill="#A3C6DF" transform="translate(21.1875,4.9375)"/>
<path d="M0 0 C6.6 0.33 13.2 0.66 20 1 C20 1.66 20 2.32 20 3 C16.29583874 5.37590142 13.07015427 5.20500286 8.75 5.125 C7.48671875 5.10695313 6.2234375 5.08890625 4.921875 5.0703125 C3.95765625 5.04710937 2.9934375 5.02390625 2 5 C1.34 3.35 0.68 1.7 0 0 Z " fill="#461819" transform="translate(13,45)"/>
<path d="M0 0 C1.9375 1.0625 1.9375 1.0625 4 3 C4.75 6.6875 4.75 6.6875 5 10 C4.649375 9.38125 4.29875 8.7625 3.9375 8.125 C0.79574608 4.67920538 -2.89067591 4.10060369 -7.45703125 3.8828125 C-9.64239913 3.87592945 -11.81662477 3.91088264 -14 4 C-14 3.01 -14 2.02 -14 1 C-13.07316406 1.01160156 -12.14632813 1.02320313 -11.19140625 1.03515625 C-9.39509766 1.04869141 -9.39509766 1.04869141 -7.5625 1.0625 C-5.77005859 1.07990234 -5.77005859 1.07990234 -3.94140625 1.09765625 C-1.11126659 1.33901792 -1.11126659 1.33901792 0 0 Z " fill="#F97806" transform="translate(38,14)"/>
<path d="M0 0 C0.33 0 0.66 0 1 0 C1 2.31 1 4.62 1 7 C1.66 7 2.32 7 3 7 C5.32590854 10.63423209 5.16265833 13.77088331 5 18 C5.66 18 6.32 18 7 18 C7.33 19.65 7.66 21.3 8 23 C4.14690368 21.53848071 2.75981224 19.68722565 1 16 C-0.34515747 10.74165717 -0.09587818 5.39048449 0 0 Z " fill="#496892" transform="translate(2,22)"/>
<path d="M0 0 C2.75 0.875 2.75 0.875 5 2 C4.67 2.66 4.34 3.32 4 4 C1.48730881 4.34772501 -0.91147924 4.56538338 -3.4375 4.6875 C-4.16018066 4.72657471 -4.88286133 4.76564941 -5.62744141 4.8059082 C-16.68109296 5.31260581 -16.68109296 5.31260581 -22 4 C-22.66 3.34 -23.32 2.68 -24 2 C-20.535 1.505 -20.535 1.505 -17 1 C-17 1.33 -17 1.66 -17 2 C-14.91695462 2.05418326 -12.83350232 2.09287551 -10.75 2.125 C-9.58984375 2.14820313 -8.4296875 2.17140625 -7.234375 2.1953125 C-4.10250172 2.00618972 -2.68517774 1.43848808 0 0 Z " fill="#E3DDDE" transform="translate(33,47)"/>
<path d="M0 0 C0.66 0 1.32 0 2 0 C2 0.66 2 1.32 2 2 C5.63 2 9.26 2 13 2 C12.01 3.485 12.01 3.485 11 5 C7.875 5.1875 7.875 5.1875 5 5 C4.67 5.66 4.34 6.32 4 7 C-0.75 6.125 -0.75 6.125 -3 5 C-1.125 1.125 -1.125 1.125 0 0 Z " fill="#2881C3" transform="translate(8,12)"/>
<path d="M0 0 C3.23739279 1.6186964 4.42244771 4.84489543 6 8 C4.89140625 7.98839844 3.7828125 7.97679687 2.640625 7.96484375 C1.17708502 7.95546208 -0.28645678 7.94636229 -1.75 7.9375 C-2.47960938 7.92912109 -3.20921875 7.92074219 -3.9609375 7.91210938 C-7.48670558 7.89608316 -10.61034916 8.04707287 -14 9 C-14 7 -14 7 -12.359375 5.35546875 C-9.3376305 3.61946653 -7.67088565 3.86452688 -4.25 4.3125 C-3.26515625 4.43238281 -2.2803125 4.55226563 -1.265625 4.67578125 C-0.14414062 4.83626953 -0.14414062 4.83626953 1 5 C0.67 3.35 0.34 1.7 0 0 Z " fill="#562225" transform="translate(24,24)"/>
<path d="M0 0 C-0.99 2.97 -1.98 5.94 -3 9 C-3.99 9 -4.98 9 -6 9 C-6 7.35 -6 5.7 -6 4 C-11.61 3.67 -17.22 3.34 -23 3 C-23 2.67 -23 2.34 -23 2 C-21.80761719 1.93941406 -20.61523438 1.87882812 -19.38671875 1.81640625 C-17.82030075 1.73198851 -16.25389512 1.64734113 -14.6875 1.5625 C-13.90181641 1.52318359 -13.11613281 1.48386719 -12.30664062 1.44335938 C-11.54931641 1.40146484 -10.79199219 1.35957031 -10.01171875 1.31640625 C-9.31522217 1.27974854 -8.61872559 1.24309082 -7.90112305 1.20532227 C-5.08272835 0.90093419 -2.89750208 0 0 0 Z " fill="#9A0306" transform="translate(39,38)"/>
<path d="M0 0 C1.5 1.375 1.5 1.375 3 3 C3 3.66 3 4.32 3 5 C9.6 5 16.2 5 23 5 C23 5.66 23 6.32 23 7 C19.91674642 7.0582253 16.83363495 7.09367134 13.75 7.125 C12.44095703 7.15013672 12.44095703 7.15013672 11.10546875 7.17578125 C10.26113281 7.18222656 9.41679687 7.18867187 8.546875 7.1953125 C7.77182617 7.20578613 6.99677734 7.21625977 6.19824219 7.22705078 C3.74116461 6.97326556 2.12688458 6.22444152 0 5 C0 3.35 0 1.7 0 0 Z " fill="#A50206" transform="translate(10,33)"/>
<path d="M0 0 C7.99912971 -0.49994561 13.42527999 1.3948868 19.5 6.6875 C20.67694672 7.78070243 21.84741894 8.88113806 23 10 C22.67 10.66 22.34 11.32 22 12 C21.55269531 11.60167969 21.10539062 11.20335937 20.64453125 10.79296875 C13.94840054 4.92493096 8.80764337 2.45368871 0 1 C0 0.67 0 0.34 0 0 Z " fill="#F4CDAB" transform="translate(20,4)"/>
<path d="M0 0 C0.33 0 0.66 0 1 0 C1.27714844 0.91523437 1.55429688 1.83046875 1.83984375 2.7734375 C2.20207031 3.96195313 2.56429688 5.15046875 2.9375 6.375 C3.29714844 7.55835938 3.65679688 8.74171875 4.02734375 9.9609375 C4.87576274 12.87926818 4.87576274 12.87926818 6 15 C3.625 14.375 3.625 14.375 1 13 C-1.33926743 8.42779548 -0.98983748 4.94918738 0 0 Z " fill="#8C141B" transform="translate(9,33)"/>
<path d="M0 0 C0.33 0 0.66 0 1 0 C1.66 4.95 2.32 9.9 3 15 C1 14 1 14 -0.125 11.9375 C-1.26872036 8.09786737 -1.20014037 5.00280744 -1 1 C-0.67 0.67 -0.34 0.34 0 0 Z " fill="#3C4257" transform="translate(22,14)"/>
<path d="M0 0 C0 0.99 0 1.98 0 3 C-6.625 4.25 -6.625 4.25 -10 2 C-6.3558226 -0.4294516 -4.28758728 -0.16179575 0 0 Z " fill="#B2080B" transform="translate(40,35)"/>
<path d="M0 0 C1.32 0.99 2.64 1.98 4 3 C3.67 3.66 3.34 4.32 3 5 C2.236875 4.67 1.47375 4.34 0.6875 4 C-4.25174651 2.66054332 -8.91463109 2.83712342 -14 3 C-14 2.34 -14 1.68 -14 1 C-13.07316406 1.01160156 -12.14632813 1.02320313 -11.19140625 1.03515625 C-9.39509766 1.04869141 -9.39509766 1.04869141 -7.5625 1.0625 C-5.77005859 1.07990234 -5.77005859 1.07990234 -3.94140625 1.09765625 C-1.11126659 1.33901792 -1.11126659 1.33901792 0 0 Z " fill="#F98619" transform="translate(38,14)"/>
<path d="M0 0 C2.3828125 -0.29296875 2.3828125 -0.29296875 5.125 -0.1875 C6.03507812 -0.16042969 6.94515625 -0.13335937 7.8828125 -0.10546875 C8.58148438 -0.07066406 9.28015625 -0.03585937 10 0 C9.67 0.66 9.34 1.32 9 2 C7.02 2 5.04 2 3 2 C2.67 2.66 2.34 3.32 2 4 C0.68 3.67 -0.64 3.34 -2 3 C-1.34 2.01 -0.68 1.02 0 0 Z " fill="#0975C2" transform="translate(10,15)"/>
<path d="M0 0 C0 3.38023517 -0.87455622 5.83468937 -2 9 C-2.99 9 -3.98 9 -5 9 C-5 7.68 -5 6.36 -5 5 C-4.34 5 -3.68 5 -3 5 C-2.5359375 4.0409375 -2.5359375 4.0409375 -2.0625 3.0625 C-1 1 -1 1 0 0 Z " fill="#883234" transform="translate(38,38)"/>
<path d="M0 0 C3.63 0.33 7.26 0.66 11 1 C7.68629 3.20914 6.6553979 3.22481553 2.8125 3.125 C1.91144531 3.10695313 1.01039062 3.08890625 0.08203125 3.0703125 C-0.60503906 3.04710937 -1.29210938 3.02390625 -2 3 C-1.34 2.01 -0.68 1.02 0 0 Z " fill="#7CB1D9" transform="translate(14,9)"/>
<path d="M0 0 C0.80824219 0.11085938 1.61648437 0.22171875 2.44921875 0.3359375 C3.37154297 0.47902344 3.37154297 0.47902344 4.3125 0.625 C4.3125 0.955 4.3125 1.285 4.3125 1.625 C0.3525 2.285 -3.6075 2.945 -7.6875 3.625 C-7.6875 2.965 -7.6875 2.305 -7.6875 1.625 C-4.33422361 -0.61051759 -3.78006343 -0.54783528 0 0 Z " fill="#8B1B21" transform="translate(17.6875,29.375)"/>
<path d="M0 0 C0 0.99 0 1.98 0 3 C-0.99 3.33 -1.98 3.66 -3 4 C-3 3.34 -3 2.68 -3 2 C-6.3 2 -9.6 2 -13 2 C-13 1.67 -13 1.34 -13 1 C-11.20843648 0.83222817 -9.4167455 0.66581706 -7.625 0.5 C-6.62726562 0.4071875 -5.62953125 0.314375 -4.6015625 0.21875 C-2 0 -2 0 0 0 Z " fill="#5B8FB9" transform="translate(24,11)"/>
<path d="M0 0 C2.625 0.9375 2.625 0.9375 5 2 C4.67 2.66 4.34 3.32 4 4 C1.69 4 -0.62 4 -3 4 C-2.67 3.01 -2.34 2.02 -2 1 C-1.34 0.67 -0.68 0.34 0 0 Z " fill="#F9F8F8" transform="translate(33,47)"/>
<path d="M0 0 C0.99 0.33 1.98 0.66 3 1 C2.67 1.33 2.34 1.66 2 2 C4.97 2.33 7.94 2.66 11 3 C11 3.33 11 3.66 11 4 C7.37 4 3.74 4 0 4 C-0.33 3.01 -0.66 2.02 -1 1 C-0.67 0.67 -0.34 0.34 0 0 Z " fill="#3C91CE" transform="translate(10,10)"/>
<path d="M0 0 C2.9375 0.375 2.9375 0.375 6 1 C6.33 1.66 6.66 2.32 7 3 C4.36 3 1.72 3 -1 3 C-0.67 2.01 -0.34 1.02 0 0 Z " fill="#F8D1A7" transform="translate(26,8)"/>
<path d="M0 0 C2.66735273 2.48952921 4.55746343 4.63408134 6 8 C3.5625 7.375 3.5625 7.375 1 6 C0.1875 2.875 0.1875 2.875 0 0 Z " fill="#79393D" transform="translate(9,40)"/>
</svg>
